<svg xmlns="http://www.w3.org/2000/svg" viewBox="0 0 32 32"><defs><style>.cls-1,.cls-2{fill:#68acd5;}.cls-1{opacity:0.5;}.cls-3{fill:#828282;}</style></defs><title>fav</title><g id="Capa_2" data-name="Capa 2"><path class="cls-1" d="M22.65,18.63a3.08,3.08,0,0,0-1.06-1,2.91,2.91,0,0,0-3.95,3.95,2.85,2.85,0,0,0,.5.67,3,3,0,0,0,.49.39,2.91,2.91,0,0,0,4-4Z"/><path class="cls-1" d="M14.39,10.4a3.48,3.48,0,0,0-.45-.58,3,3,0,0,0-.58-.44,2.91,2.91,0,0,0-4,4,2.93,2.93,0,0,0,1,1,2.91,2.91,0,0,0,4-4Z"/><path class="cls-1" d="M22.18,9.82a2.91,2.91,0,0,0-3.54-.44,2.69,2.69,0,0,0-.58.44,3,3,0,0,0-.45.58,2.91,2.91,0,0,0,4,4,3.48,3.48,0,0,0,.58-.45,3.06,3.06,0,0,0,.44-.58A2.91,2.91,0,0,0,22.18,9.82Z"/><path class="cls-2" d="M9.52,9.53a3.32,3.32,0,0,1,2.36-1A3.38,3.38,0,0,1,13.46,9,5.83,5.83,0,1,0,9,13.46,3.34,3.34,0,0,1,9.52,9.53Z"/><path class="cls-2" d="M22.47,9.53A3.31,3.31,0,0,1,23,13.46,5.83,5.83,0,1,0,18.54,9a3.35,3.35,0,0,1,1.58-.41A3.3,3.3,0,0,1,22.47,9.53Z"/><path class="cls-2" d="M11.87,23.45A3.33,3.33,0,0,1,9,18.54,5.82,5.82,0,1,0,13.46,23a3.38,3.38,0,0,1-1.58.41Z"/><path class="cls-2" d="M23.08,18.53a3.36,3.36,0,0,1-.53,4,3.3,3.3,0,0,1-2.35,1,3.37,3.37,0,0,1-1.67-.45,5.82,5.82,0,1,0,4.55-4.55Z"/><path class="cls-3" d="M20.19,16.87a3.25,3.25,0,0,1,1.5.36,6,6,0,0,0,0-2.43,3.27,3.27,0,0,1-1.59.41h0a3.32,3.32,0,0,1-2.92-4.91,6,6,0,0,0-2.38,0,3.33,3.33,0,0,1-2.93,4.91,3.26,3.26,0,0,1-1.58-.41,5.88,5.88,0,0,0,0,2.4,3.24,3.24,0,0,1,1.58-.41,3.33,3.33,0,0,1,2.93,4.91,5.76,5.76,0,0,0,2.41,0,3.35,3.35,0,0,1,.62-3.85A3.29,3.29,0,0,1,20.19,16.87Z"/><path class="cls-1" d="M13.94,18.06a2.91,2.91,0,0,0-3.54-.45,2.93,2.93,0,0,0-1,1,2.91,2.91,0,0,0,4,4,3,3,0,0,0,.58-.44,3.48,3.48,0,0,0,.45-.58A2.91,2.91,0,0,0,13.94,18.06Z"/></g></svg>