<svg xmlns="http://www.w3.org/2000/svg" viewBox="0 0 230.26 230.93"><defs><style>.cls-1,.cls-2{fill:#68acd5;}.cls-1{opacity:0.5;}.cls-3{fill:#828282;}</style></defs><title>Plantilla</title><g id="Capa_2" data-name="Capa 2"><path class="cls-1" d="M158.33,132.56a19.08,19.08,0,0,0-2.58-3.22,18.69,18.69,0,0,0-4.32-3.22,18.91,18.91,0,0,0-22.42,30,19.12,19.12,0,0,0,3.22,2.57,18.9,18.9,0,0,0,26.1-26.1Z"/><path class="cls-1" d="M104.66,79.12a19,19,0,0,0-2.9-3.77A18.56,18.56,0,0,0,98,72.45a18.91,18.91,0,0,0-23,29.64,18.51,18.51,0,0,0,3.77,2.9,18.89,18.89,0,0,0,25.88-25.87Z"/><path class="cls-1" d="M155.25,75.35a18.88,18.88,0,0,0-23-2.9,18.56,18.56,0,0,0-3.78,2.9,18.9,18.9,0,0,0,23,29.64,18.51,18.51,0,0,0,3.77-2.9,19,19,0,0,0,0-26.74Z"/><path class="cls-2" d="M73.09,73.42A21.46,21.46,0,0,1,88.35,67.1a21.69,21.69,0,0,1,10.29,2.64A37.83,37.83,0,1,0,69.39,99,21.59,21.59,0,0,1,73.09,73.42Z"/><path class="cls-2" d="M157.17,73.42A21.59,21.59,0,0,1,160.87,99a37.81,37.81,0,1,0-29.26-29.24,21.76,21.76,0,0,1,10.3-2.64A21.46,21.46,0,0,1,157.17,73.42Z"/><path class="cls-2" d="M88.35,163.83a21.58,21.58,0,0,1-19-31.88,37.82,37.82,0,1,0,29.25,29.24,21.58,21.58,0,0,1-10.29,2.64Z"/><path class="cls-2" d="M161.08,131.91a21.73,21.73,0,0,1-3.41,26.1,21.59,21.59,0,0,1-26.1,3.42,37.83,37.83,0,1,0,29.51-29.52Z"/><path class="cls-3" d="M142.36,121.09a21.62,21.62,0,0,1,9.74,2.35,38,38,0,0,0,0-15.74,21.75,21.75,0,0,1-10.29,2.64h0a21.59,21.59,0,0,1-19-31.89,37.82,37.82,0,0,0-15.5,0A21.56,21.56,0,0,1,78.12,107.7a38.19,38.19,0,0,0,0,15.54,21.56,21.56,0,0,1,29.26,29.23,38,38,0,0,0,15.71,0,21.72,21.72,0,0,1,4-25A21.45,21.45,0,0,1,142.36,121.09Z"/><path class="cls-1" d="M101.76,128.84a18.91,18.91,0,0,0-23-2.9,18.51,18.51,0,0,0-3.77,2.9,18.9,18.9,0,0,0,23,29.64,18.56,18.56,0,0,0,3.78-2.9,19,19,0,0,0,0-26.74Z"/></g></svg>