<svg xmlns="http://www.w3.org/2000/svg" viewBox="0 0 431.83 184.48"><defs><style>.cls-1,.cls-2{fill:#68acd5;}.cls-1{opacity:0.5;}.cls-3{fill:#828282;}.cls-4{fill:#a9abab;}</style></defs><title>logo</title><g id="Capa_2" data-name="Capa 2"><path class="cls-1" d="M394.2,71.64a8.14,8.14,0,0,0-1.14-1.43,8.51,8.51,0,0,0-1.93-1.44,8.42,8.42,0,0,0-11.42,11.42,8.51,8.51,0,0,0,1.44,1.93,8.14,8.14,0,0,0,1.43,1.14A8.41,8.41,0,0,0,394.2,71.64Z"/><path class="cls-1" d="M370.3,47.84A8.46,8.46,0,0,0,369,46.16a8.64,8.64,0,0,0-1.68-1.29,8.41,8.41,0,0,0-11.52,11.52,8.64,8.64,0,0,0,1.29,1.68,8.91,8.91,0,0,0,1.68,1.3A8.41,8.41,0,0,0,370.3,47.84Z"/><path class="cls-1" d="M392.83,46.16a8.42,8.42,0,0,0-10.23-1.29,9,9,0,0,0-1.68,1.29,9.28,9.28,0,0,0-1.29,1.68,8.41,8.41,0,0,0,11.52,11.53,8.32,8.32,0,0,0,1.68-1.3,7.92,7.92,0,0,0,1.29-1.68A8.41,8.41,0,0,0,392.83,46.16Z"/><path class="cls-2" d="M356.25,45.31a9.53,9.53,0,0,1,6.8-2.82,9.67,9.67,0,0,1,4.58,1.18,16.85,16.85,0,1,0-13,13A9.61,9.61,0,0,1,356.25,45.31Z"/><path class="cls-2" d="M393.69,45.31a9.61,9.61,0,0,1,1.65,11.38,16.84,16.84,0,1,0-13-13,9.56,9.56,0,0,1,11.38,1.64Z"/><path class="cls-2" d="M363,85.56a9.6,9.6,0,0,1-8.44-14.19,16.84,16.84,0,1,0,13,13,9.65,9.65,0,0,1-4.58,1.17Z"/><path class="cls-2" d="M395.43,71.35A9.67,9.67,0,0,1,393.91,83a9.53,9.53,0,0,1-6.8,2.82,9.66,9.66,0,0,1-4.82-1.29,16.84,16.84,0,1,0,13.14-13.15Z"/><path class="cls-3" d="M387.1,66.53a9.6,9.6,0,0,1,4.33,1,16.9,16.9,0,0,0,0-7,9.66,9.66,0,0,1-4.59,1.17h0a9.6,9.6,0,0,1-8.44-14.19,16.88,16.88,0,0,0-6.9,0,9.6,9.6,0,0,1-13,13,16.81,16.81,0,0,0,0,6.92,9.6,9.6,0,0,1,13,13,16.8,16.8,0,0,0,7,0,9.69,9.69,0,0,1,1.78-11.14A9.59,9.59,0,0,1,387.1,66.53Z"/><path class="cls-1" d="M369,70a8.42,8.42,0,0,0-10.23-1.29,8.13,8.13,0,0,0-3,3,8.41,8.41,0,0,0,11.52,11.52,8.13,8.13,0,0,0,3-3A8.41,8.41,0,0,0,369,70Z"/><polygon class="cls-3" points="299.37 31.51 293.39 29.62 290.53 28.72 277.95 24.75 266.55 44.88 285.19 44.86 299.37 31.51"/><path class="cls-3" d="M49.56,33.65l-33.36,79,26.85-.06,4-11.1H76.73l3.9,11,27.81-.06-32-78.83H49.56ZM53.85,82.8l8.34-23.11L70.31,82.8Z"/><path class="cls-3" d="M209,113.8a20.75,20.75,0,0,0,18.14-9.7v8.57h25.36V51H227.18V81.56c0,6-2.92,9.91-7.55,9.91-4.06,0-6.76-3.26-6.76-8.45V51H187.51V90.35c0,14.2,8.9,23.45,21.53,23.45"/><polygon class="cls-3" points="272.66 51.01 264.99 51.01 264.99 112.67 272.35 112.67 290.35 112.67 290.35 51.01 272.66 51.01"/><path class="cls-2" d="M176.19,51H150.83v6.31a21.13,21.13,0,0,0-16.34-7.21c-16.8,0-27.62,12.29-27.62,31.33,0,19.5,11.16,32.13,28.3,32.13a20,20,0,0,0,15.66-7.1v28l25.36.09ZM141.7,94.07c-5.63,0-9.24-4.73-9.24-11.95s3.61-12,9.24-12,9.13,4.74,9.13,12-3.6,11.95-9.13,11.95"/><path class="cls-4" d="M278.26,123a21.56,21.56,0,0,0-7-1.79c-.67-.06-1.34-.1-2-.1-11.7,0-20.77,8.59-20.77,19.94s9.07,20.05,20.77,20.05S290,152.36,290,141.06a19.55,19.55,0,0,0-11.77-18m-8.93,32.11a14,14,0,1,1,0-28,14,14,0,0,1,0,28"/><polygon class="cls-4" points="240.54 121.29 231.08 153.43 221.57 121.29 215.08 121.35 205.62 153.43 196.11 121.29 189 121.29 191.54 129.02 201.98 160.83 202.03 160.83 208.81 160.83 218.21 129.99 227.5 160.83 234.27 160.83 247.36 121.29 240.54 121.29"/><path class="cls-4" d="M320.67,147.61c5.2-2,8.11-6.49,8.11-12.82,0-5.46-2.34-9.43-6.62-11.6a20.21,20.21,0,0,0-9.16-1.9H297.11v39.54h6.6V148.91H313c.62,0,1.23,0,1.79,0l7.16,12h7.5ZM313,142.93h-9.29V127.28H313c6,0,9.51,2.48,9.51,7.68,0,5.37-3.47,8-9.51,8"/><polygon class="cls-4" points="355.49 138.18 370.66 121.29 367.1 121.29 362.88 121.29 361 123.34 344.19 141.74 344.19 123.28 344.19 121.29 337.59 121.29 337.59 123.25 337.59 160.83 344.19 160.83 344.19 150.78 350.85 143.38 363.72 160.83 371.66 160.83 355.49 138.18"/><path class="cls-2" d="M311.45,90.46c-6.77,0-11.5,4.74-11.5,11.5,0,5.1,2.61,9,6.72,10.71a12.64,12.64,0,0,0,4.78.9,13,13,0,0,0,4.84-.9c4.15-1.69,6.77-5.61,6.77-10.71,0-6.76-4.74-11.5-11.61-11.5"/></g></svg>